<?xml version="1.0" encoding="UTF-8" standalone="no"?>
<!DOCTYPE svg PUBLIC "-//W3C//DTD SVG 1.1//EN"
 "http://www.w3.org/Graphics/SVG/1.1/DTD/svg11.dtd">
<!-- Generated by graphviz version 2.40.1 (20161225.0304)
 -->
<!-- Title: G Pages: 1 -->
<svg width="351pt" height="204pt"
 viewBox="0.00 0.00 351.49 204.00" xmlns="http://www.w3.org/2000/svg" xmlns:xlink="http://www.w3.org/1999/xlink">
<g id="graph0" class="graph" transform="scale(1 1) rotate(0) translate(4 200)">
<title>G</title>
<polygon fill="#ffffff" stroke="transparent" points="-4,4 -4,-200 347.4913,-200 347.4913,4 -4,4"/>
<g id="clust1" class="cluster">
<title>cluster_Global</title>
<path fill="none" stroke="#c0c0c0" d="M173.4913,-8C173.4913,-8 323.4913,-8 323.4913,-8 329.4913,-8 335.4913,-14 335.4913,-20 335.4913,-20 335.4913,-176 335.4913,-176 335.4913,-182 329.4913,-188 323.4913,-188 323.4913,-188 173.4913,-188 173.4913,-188 167.4913,-188 161.4913,-182 161.4913,-176 161.4913,-176 161.4913,-20 161.4913,-20 161.4913,-14 167.4913,-8 173.4913,-8"/>
<text text-anchor="middle" x="248.4913" y="-175.2" font-family="Times,serif" font-size="11.00" fill="#c0c0c0">Global</text>
</g>
<!-- \\WsdlException -->
<g id="node1" class="node">
<title>\\WsdlException</title>
<polygon fill="none" stroke="#000000" points="300.4913,-160 196.4913,-160 196.4913,-124 300.4913,-124 300.4913,-160"/>
<text text-anchor="middle" x="248.4913" y="-139.2" font-family="Courier,monospace" font-size="11.00" fill="#000000">WsdlException</text>
</g>
<!-- \\Exception -->
<g id="node4" class="node">
<title>\\Exception</title>
<ellipse fill="none" stroke="#000000" cx="48.7457" cy="-88" rx="48.9926" ry="18"/>
<text text-anchor="middle" x="48.7457" y="-84.3" font-family="Times,serif" font-size="14.00" fill="#c0c0c0">\Exception</text>
</g>
<!-- \\WsdlException&#45;&gt;\\Exception -->
<g id="edge1" class="edge">
<title>\\WsdlException&#45;&gt;\\Exception</title>
<path fill="none" stroke="#000000" d="M196.2714,-127.8827C165.9467,-119.6846 127.9662,-109.4168 98.137,-101.3526"/>
<polygon fill="none" stroke="#000000" points="98.9232,-97.9396 88.3563,-98.7085 97.0964,-104.697 98.9232,-97.9396"/>
</g>
<!-- \\dockerUtilsException -->
<g id="node2" class="node">
<title>\\dockerUtilsException</title>
<polygon fill="none" stroke="#000000" points="324.4913,-106 172.4913,-106 172.4913,-70 324.4913,-70 324.4913,-106"/>
<text text-anchor="middle" x="248.4913" y="-85.2" font-family="Courier,monospace" font-size="11.00" fill="#000000">dockerUtilsException</text>
</g>
<!-- \\dockerUtilsException&#45;&gt;\\Exception -->
<g id="edge2" class="edge">
<title>\\dockerUtilsException&#45;&gt;\\Exception</title>
<path fill="none" stroke="#000000" d="M172.4063,-88C150.9966,-88 128.0385,-88 107.7864,-88"/>
<polygon fill="none" stroke="#000000" points="107.7738,-84.5001 97.7738,-88 107.7738,-91.5001 107.7738,-84.5001"/>
</g>
<!-- \\getParameterException -->
<g id="node3" class="node">
<title>\\getParameterException</title>
<polygon fill="none" stroke="#000000" points="327.4913,-52 169.4913,-52 169.4913,-16 327.4913,-16 327.4913,-52"/>
<text text-anchor="middle" x="248.4913" y="-31.2" font-family="Courier,monospace" font-size="11.00" fill="#000000">getParameterException</text>
</g>
<!-- \\getParameterException&#45;&gt;\\Exception -->
<g id="edge3" class="edge">
<title>\\getParameterException&#45;&gt;\\Exception</title>
<path fill="none" stroke="#000000" d="M181.7012,-52.0563C154.2677,-59.4728 123.0797,-67.9043 97.8081,-74.7363"/>
<polygon fill="none" stroke="#000000" points="96.8195,-71.3778 88.0795,-77.3663 98.6464,-78.1352 96.8195,-71.3778"/>
</g>
</g>
</svg>
