<?xml version="1.0" encoding="UTF-8" standalone="no"?>
<!DOCTYPE svg PUBLIC "-//W3C//DTD SVG 1.1//EN"
 "http://www.w3.org/Graphics/SVG/1.1/DTD/svg11.dtd">
<!-- Generated by graphviz version 2.40.1 (20161225.0304)
 -->
<!-- Title: G Pages: 1 -->
<svg width="351pt" height="150pt"
 viewBox="0.00 0.00 351.49 150.00" xmlns="http://www.w3.org/2000/svg" xmlns:xlink="http://www.w3.org/1999/xlink">
<g id="graph0" class="graph" transform="scale(1 1) rotate(0) translate(4 146)">
<title>G</title>
<polygon fill="#ffffff" stroke="transparent" points="-4,4 -4,-146 347.4913,-146 347.4913,4 -4,4"/>
<g id="clust1" class="cluster">
<title>cluster_Global</title>
<path fill="none" stroke="#c0c0c0" d="M173.4913,-8C173.4913,-8 323.4913,-8 323.4913,-8 329.4913,-8 335.4913,-14 335.4913,-20 335.4913,-20 335.4913,-122 335.4913,-122 335.4913,-128 329.4913,-134 323.4913,-134 323.4913,-134 173.4913,-134 173.4913,-134 167.4913,-134 161.4913,-128 161.4913,-122 161.4913,-122 161.4913,-20 161.4913,-20 161.4913,-14 167.4913,-8 173.4913,-8"/>
<text text-anchor="middle" x="248.4913" y="-121.2" font-family="Times,serif" font-size="11.00" fill="#c0c0c0">Global</text>
</g>
<!-- \\dockerUtilsException -->
<g id="node1" class="node">
<title>\\dockerUtilsException</title>
<polygon fill="none" stroke="#000000" points="324.4913,-106 172.4913,-106 172.4913,-70 324.4913,-70 324.4913,-106"/>
<text text-anchor="middle" x="248.4913" y="-85.2" font-family="Courier,monospace" font-size="11.00" fill="#000000">dockerUtilsException</text>
</g>
<!-- \\Exception -->
<g id="node3" class="node">
<title>\\Exception</title>
<ellipse fill="none" stroke="#000000" cx="48.7457" cy="-61" rx="48.9926" ry="18"/>
<text text-anchor="middle" x="48.7457" y="-57.3" font-family="Times,serif" font-size="14.00" fill="#c0c0c0">\Exception</text>
</g>
<!-- \\dockerUtilsException&#45;&gt;\\Exception -->
<g id="edge1" class="edge">
<title>\\dockerUtilsException&#45;&gt;\\Exception</title>
<path fill="none" stroke="#000000" d="M172.4063,-77.7154C149.8567,-74.6674 125.5893,-71.3871 104.575,-68.5466"/>
<polygon fill="none" stroke="#000000" points="104.9207,-65.0615 94.542,-67.1904 103.983,-71.9985 104.9207,-65.0615"/>
</g>
<!-- \\getParameterException -->
<g id="node2" class="node">
<title>\\getParameterException</title>
<polygon fill="none" stroke="#000000" points="327.4913,-52 169.4913,-52 169.4913,-16 327.4913,-16 327.4913,-52"/>
<text text-anchor="middle" x="248.4913" y="-31.2" font-family="Courier,monospace" font-size="11.00" fill="#000000">getParameterException</text>
</g>
<!-- \\getParameterException&#45;&gt;\\Exception -->
<g id="edge2" class="edge">
<title>\\getParameterException&#45;&gt;\\Exception</title>
<path fill="none" stroke="#000000" d="M169.2597,-44.7099C147.7409,-47.6186 124.8853,-50.7081 104.9285,-53.4057"/>
<polygon fill="none" stroke="#000000" points="104.22,-49.9695 94.779,-54.7776 105.1578,-56.9064 104.22,-49.9695"/>
</g>
</g>
</svg>
